<?xml version="1.0" standalone="no"?>
<!DOCTYPE svg PUBLIC "-//W3C//DTD SVG 20010904//EN"
 "http://www.w3.org/TR/2001/REC-SVG-20010904/DTD/svg10.dtd">
<svg version="1.0" xmlns="http://www.w3.org/2000/svg"
 width="1024.000000pt" height="1024.000000pt" viewBox="0 0 1024.000000 1024.000000"
 preserveAspectRatio="xMidYMid meet">
<metadata>
Created by potrace 1.14, written by Peter Selinger 2001-2017
</metadata>
<g transform="translate(0.000000,1024.000000) scale(0.100000,-0.100000)"
fill="#000000" stroke="none">
<path d="M4879 10236 c-2 -2 -47 -7 -99 -11 -136 -9 -237 -20 -300 -30 -14 -2
-54 -9 -90 -14 -36 -6 -76 -13 -90 -16 -14 -3 -36 -7 -50 -10 -14 -3 -36 -7
-50 -10 -14 -3 -36 -8 -49 -11 -13 -3 -51 -12 -85 -20 -34 -8 -69 -17 -79 -19
-46 -10 -243 -68 -252 -73 -5 -4 -14 -7 -20 -8 -57 -10 -520 -199 -552 -226
-7 -6 -13 -7 -13 -2 0 5 -4 5 -8 -1 -4 -5 -36 -23 -71 -40 -35 -16 -69 -35
-75 -40 -6 -6 -36 -23 -66 -38 -108 -55 -354 -213 -461 -296 -26 -20 -60 -45
-75 -56 -45 -32 -207 -166 -231 -192 -12 -13 -25 -23 -29 -23 -8 0 -354 -345
-354 -353 0 -3 -16 -23 -36 -44 -20 -21 -71 -81 -113 -133 -42 -52 -79 -96
-83 -98 -5 -2 -8 -8 -8 -14 0 -5 -15 -28 -34 -51 -38 -47 -183 -264 -212 -317
-10 -19 -22 -37 -25 -40 -4 -3 -17 -25 -29 -50 -12 -25 -26 -47 -29 -50 -4 -3
-13 -20 -20 -37 -8 -18 -17 -33 -22 -33 -5 0 -8 -3 -7 -7 4 -10 -64 -147 -74
-151 -5 -2 -8 -9 -8 -16 0 -7 -14 -41 -31 -76 -51 -106 -167 -400 -183 -465
-2 -5 -6 -17 -10 -25 -6 -14 -42 -134 -52 -175 -6 -24 -7 -28 -22 -80 -6 -22
-13 -51 -16 -65 -3 -14 -10 -43 -15 -64 -5 -22 -8 -44 -5 -48 3 -4 1 -8 -4 -8
-5 0 -9 -6 -9 -12 0 -7 -4 -31 -8 -53 -4 -22 -8 -49 -10 -60 -2 -11 -9 -49
-15 -85 -7 -36 -14 -81 -16 -100 -2 -19 -6 -51 -9 -70 -20 -127 -30 -314 -30
-565 0 -219 5 -326 22 -480 2 -22 5 -58 7 -80 1 -23 4 -45 7 -50 3 -6 6 -26 8
-45 2 -19 9 -69 17 -110 8 -41 17 -88 20 -105 3 -16 10 -48 15 -70 5 -22 11
-49 14 -60 4 -21 15 -73 19 -90 2 -5 6 -23 10 -40 7 -26 33 -114 78 -265 11
-36 21 -63 37 -102 6 -13 21 -56 36 -96 14 -41 37 -98 50 -129 14 -30 27 -60
28 -66 9 -43 271 -538 289 -545 4 -2 8 -8 8 -13 0 -16 189 -294 257 -379 7 -8
26 -33 43 -55 104 -132 177 -213 350 -385 203 -202 306 -292 500 -435 52 -38
97 -73 98 -77 2 -5 8 -8 14 -8 6 0 31 -15 57 -33 58 -41 206 -133 291 -181 68
-38 393 -199 422 -209 18 -6 17 -1 -4 118 -6 33 -12 71 -13 85 -2 14 -10 72
-19 130 -9 58 -18 121 -20 140 -16 117 -21 157 -31 240 -3 25 -7 61 -10 80
-11 96 -26 249 -30 313 -2 27 -5 50 -7 51 -1 1 -39 27 -83 56 -44 30 -84 58
-90 62 -5 5 -35 27 -65 50 -30 24 -60 47 -66 53 -7 5 -31 26 -55 45 -112 91
-338 318 -435 438 -12 15 -43 54 -69 86 -166 206 -350 519 -470 801 -43 100
-140 380 -150 429 -2 12 -4 21 -5 21 -1 0 -3 11 -6 24 -2 13 -13 58 -23 100
-11 42 -22 93 -25 115 -4 21 -8 41 -10 45 -2 3 -7 33 -10 65 -4 32 -8 62 -10
65 -2 3 -7 35 -10 71 -3 36 -9 90 -12 120 -3 30 -7 93 -9 140 -2 47 -5 87 -6
90 -1 3 -1 9 0 13 1 5 3 88 6 185 2 97 6 195 9 217 3 22 10 76 16 120 6 44 13
94 16 110 3 17 7 41 9 55 2 14 4 25 5 25 1 0 3 16 6 35 2 19 11 62 19 95 9 33
17 69 19 80 8 40 19 80 25 90 3 6 7 18 8 27 5 33 75 243 84 253 5 5 9 15 9 22
0 44 197 450 285 588 20 30 35 58 34 61 0 4 3 10 8 13 5 3 29 35 53 71 37 56
155 215 170 230 3 3 30 34 60 70 71 84 61 74 161 176 96 99 158 157 238 224
30 25 63 53 73 63 10 9 22 17 27 17 5 0 11 3 13 8 6 13 91 77 198 148 58 38
107 72 108 77 2 4 8 7 13 7 12 0 112 61 121 74 4 6 8 7 8 3 0 -5 15 0 33 11
79 47 262 135 372 177 39 15 84 33 100 40 26 11 47 18 120 39 6 2 12 4 15 4 3
0 23 7 45 16 39 14 119 38 140 41 6 0 28 6 50 12 22 7 56 15 75 18 19 3 51 10
70 15 20 5 54 12 75 15 22 3 51 7 64 10 22 4 94 14 226 30 39 5 300 17 350 16
147 -2 394 -21 490 -37 49 -9 98 -16 125 -19 14 -1 32 -5 40 -9 8 -3 29 -8 45
-10 63 -10 101 -18 118 -27 9 -5 17 -8 17 -5 0 8 296 -80 315 -94 6 -4 17 -7
25 -8 16 0 241 -91 300 -122 19 -9 53 -26 75 -36 22 -10 47 -25 57 -32 9 -8
23 -14 31 -16 8 -1 26 -9 40 -19 15 -9 31 -17 37 -17 5 0 10 -3 10 -8 0 -4 14
-13 30 -20 75 -34 415 -274 520 -368 127 -114 266 -250 330 -324 67 -77 126
-146 147 -175 5 -6 25 -31 46 -57 20 -25 37 -51 37 -56 0 -6 4 -12 8 -14 5 -1
31 -37 58 -78 27 -41 52 -76 57 -78 4 -2 7 -8 7 -13 0 -5 16 -33 35 -63 19
-30 35 -60 35 -66 0 -5 3 -10 8 -10 4 0 12 -10 18 -23 6 -12 36 -71 66 -132
48 -94 87 -177 93 -195 1 -3 9 -22 18 -44 9 -21 17 -40 17 -42 0 -1 5 -15 12
-31 6 -15 12 -30 12 -33 1 -3 4 -9 7 -15 7 -12 89 -267 94 -292 2 -10 4 -18 5
-18 1 0 3 -11 6 -24 2 -13 13 -58 23 -100 11 -42 22 -93 25 -115 4 -21 8 -41
10 -45 2 -3 7 -33 10 -65 4 -32 8 -62 10 -65 2 -3 7 -37 10 -76 4 -38 9 -83
12 -100 2 -16 6 -77 8 -135 3 -58 5 -109 6 -115 1 -5 2 -12 1 -15 -1 -3 -3
-79 -6 -170 -4 -182 -12 -271 -42 -460 -3 -19 -7 -44 -8 -55 -2 -11 -4 -20 -5
-20 -1 0 -3 -11 -5 -25 -2 -14 -6 -37 -9 -52 -3 -16 -8 -40 -11 -55 -3 -16
-11 -46 -18 -68 -6 -22 -12 -44 -12 -50 -3 -21 -27 -101 -41 -140 -9 -22 -16
-42 -16 -45 0 -3 -2 -9 -4 -15 -21 -73 -28 -94 -39 -120 -7 -16 -23 -57 -35
-90 -12 -33 -25 -64 -30 -70 -4 -5 -11 -21 -15 -35 -8 -26 -101 -218 -139
-285 -50 -91 -65 -115 -148 -239 -129 -194 -155 -229 -253 -342 -84 -97 -115
-131 -177 -194 -74 -74 -174 -167 -243 -225 -19 -16 -41 -35 -48 -41 -6 -6
-46 -36 -87 -67 -41 -31 -80 -62 -87 -67 -7 -6 -16 -10 -22 -10 -5 0 -11 -4
-13 -8 -1 -5 -24 -23 -50 -41 -27 -17 -48 -35 -49 -39 -1 -4 -2 -20 -4 -37 -4
-61 -17 -191 -20 -220 -16 -136 -26 -220 -30 -260 -4 -36 -14 -110 -20 -145
-2 -14 -7 -47 -10 -75 -4 -27 -8 -57 -10 -65 -2 -8 -7 -40 -11 -70 -11 -86
-12 -95 -14 -95 -2 0 -4 -13 -5 -30 -2 -16 -4 -30 -5 -30 -1 0 -3 -13 -4 -30
-2 -16 -7 -45 -10 -63 -8 -32 -7 -32 20 -22 47 18 209 94 214 101 3 3 16 10
30 14 14 4 27 11 30 15 3 4 30 19 60 33 30 15 84 45 120 66 36 22 74 45 85 50
26 12 126 77 145 93 8 7 24 18 37 25 12 6 66 44 120 85 54 40 105 78 114 83
37 23 221 181 327 280 81 75 222 221 310 320 41 46 153 186 208 260 32 44 61
82 64 85 3 3 23 31 43 62 21 31 42 60 47 63 6 4 8 11 5 16 -4 5 -1 9 4 9 6 0
11 6 11 14 0 8 4 16 8 18 26 10 266 454 336 618 10 25 29 68 41 95 12 28 30
75 40 105 10 30 21 60 25 65 11 16 85 248 84 263 -1 6 1 12 5 12 4 0 8 6 8 13
0 6 10 48 22 92 12 44 24 91 27 104 3 12 12 53 20 89 9 37 17 78 19 92 2 14 6
34 8 45 3 11 8 40 12 65 4 25 9 54 11 65 5 21 11 70 19 140 3 22 7 58 10 80
20 174 27 654 12 825 -4 41 -9 95 -11 120 -3 25 -8 65 -11 90 -4 25 -8 62 -10
83 -2 21 -6 46 -9 55 -3 9 -8 40 -12 67 -8 63 -12 83 -17 93 -3 4 -8 27 -11
52 -3 25 -17 90 -32 145 -14 55 -27 107 -29 115 -2 8 -13 47 -25 85 -11 39
-23 81 -26 94 -3 14 -8 29 -12 35 -4 6 -7 13 -7 16 -3 23 -66 193 -122 330
-54 131 -176 377 -252 507 -78 134 -230 366 -242 371 -5 2 -9 8 -9 13 0 8
-164 224 -194 255 -6 6 -36 40 -66 75 -79 92 -330 343 -431 430 -129 111 -181
154 -193 158 -5 2 -19 12 -30 22 -10 10 -38 31 -60 46 -23 15 -43 31 -46 34
-11 13 -249 169 -259 169 -5 0 -11 4 -13 8 -12 29 -447 251 -659 335 -190 76
-279 108 -279 100 0 -3 -6 -1 -12 5 -10 7 -126 45 -135 44 -2 -1 -17 4 -35 9
-18 6 -41 12 -50 15 -10 2 -26 6 -35 9 -68 17 -183 45 -208 49 -16 3 -41 8
-55 11 -60 14 -239 42 -310 50 -19 2 -60 7 -90 10 -30 4 -73 9 -95 11 -54 5
-611 14 -616 10z"/>
<path d="M4908 8634 c-2 -2 -35 -6 -73 -9 -39 -3 -83 -7 -100 -10 -16 -3 -47
-7 -69 -10 -21 -3 -41 -7 -45 -9 -3 -2 -28 -7 -55 -10 -27 -4 -53 -9 -56 -11
-4 -2 -22 -7 -41 -10 -61 -10 -242 -65 -354 -106 -139 -52 -466 -212 -503
-246 -6 -6 -21 -15 -32 -18 -11 -3 -20 -11 -20 -16 0 -5 -4 -9 -10 -9 -17 0
-156 -101 -280 -204 -96 -80 -275 -257 -335 -331 -22 -27 -48 -59 -58 -70 -38
-43 -97 -124 -160 -220 -37 -55 -71 -106 -77 -112 -6 -7 -9 -14 -8 -15 1 -2
-19 -42 -45 -89 -40 -73 -72 -140 -132 -274 -14 -31 -84 -228 -90 -255 -2 -8
-15 -54 -29 -102 -14 -49 -23 -88 -21 -88 3 0 0 -11 -5 -25 -5 -14 -12 -46
-16 -72 -3 -27 -8 -51 -10 -54 -5 -8 -21 -124 -31 -215 -9 -96 -10 -462 0
-559 12 -125 31 -251 47 -315 5 -19 11 -46 14 -60 10 -51 37 -147 68 -240 18
-52 33 -97 33 -100 9 -35 90 -221 138 -315 78 -154 159 -283 275 -438 94 -126
128 -163 291 -325 l134 -133 15 38 c7 21 16 49 19 63 3 14 12 33 21 43 8 9 12
17 9 17 -8 0 63 143 75 151 5 3 9 9 9 13 -1 6 48 85 59 96 3 3 18 23 34 44 50
67 157 172 245 240 46 37 88 66 92 66 4 0 -35 43 -87 95 -52 52 -94 97 -94
100 0 3 -13 20 -30 38 -16 18 -30 35 -30 38 0 3 -9 17 -21 30 -31 35 -127 193
-170 279 -54 108 -113 261 -135 355 -15 62 -44 211 -49 250 -8 62 -19 254 -15
265 1 3 3 41 5 85 3 92 12 172 25 230 5 22 12 56 15 75 9 46 13 65 15 65 1 0
3 7 5 15 16 81 110 332 126 338 5 2 9 10 9 18 0 15 13 38 90 167 28 48 56 87
61 87 5 0 9 5 9 11 0 43 376 429 419 429 6 0 11 3 11 8 0 4 28 25 63 47 34 22
64 42 67 46 3 3 10 8 15 10 6 2 53 26 105 54 52 27 97 49 100 50 3 1 21 8 40
16 65 29 223 81 285 95 123 27 226 43 318 49 23 2 44 4 47 5 3 1 10 1 15 0 27
-6 117 -4 122 3 2 4 9 4 16 0 6 -3 36 -8 66 -9 78 -4 136 -10 211 -24 36 -7
72 -14 80 -15 8 -1 22 -5 30 -8 8 -4 26 -9 40 -11 14 -3 25 -5 25 -6 0 -1 7
-3 15 -5 37 -7 173 -56 234 -84 36 -17 68 -31 71 -31 2 0 43 -22 91 -50 48
-27 91 -50 95 -50 5 0 9 -4 9 -10 0 -5 5 -10 10 -10 9 0 101 -63 137 -94 7 -6
27 -22 45 -36 42 -33 226 -216 258 -258 14 -18 30 -38 36 -45 31 -36 94 -128
94 -137 0 -5 5 -10 10 -10 6 0 10 -4 10 -9 0 -4 23 -47 50 -95 28 -48 50 -89
50 -91 0 -3 14 -35 31 -72 36 -79 80 -208 104 -307 19 -78 20 -82 30 -146 3
-25 9 -58 12 -75 2 -16 6 -69 7 -116 2 -48 6 -91 9 -96 3 -5 2 -15 -3 -23 -5
-8 -5 -22 1 -32 5 -10 6 -18 2 -18 -4 0 -8 -26 -9 -58 -2 -102 -14 -194 -48
-347 -23 -103 -109 -338 -133 -367 -8 -9 -15 -22 -17 -30 -3 -25 -143 -259
-166 -278 -3 -3 -17 -21 -30 -40 -32 -45 -59 -75 -152 -172 -43 -44 -76 -83
-73 -87 2 -4 23 -21 47 -37 130 -88 290 -259 371 -393 46 -77 91 -172 121
-253 15 -43 32 -78 36 -78 9 0 243 229 290 286 120 141 164 198 243 319 37 55
72 107 79 115 7 8 12 16 10 17 -2 2 17 40 42 86 24 45 55 105 68 132 13 28 27
53 31 56 5 3 8 8 6 10 -1 2 17 53 41 114 23 60 43 114 44 120 1 5 4 15 8 20
13 22 84 299 94 365 3 19 7 41 10 49 2 8 7 30 10 50 2 20 6 50 9 66 27 176 27
564 0 768 -8 62 -27 174 -35 207 -5 19 -11 46 -14 60 -10 51 -37 147 -68 240
-18 52 -33 97 -33 100 -21 83 -165 379 -250 514 -30 49 -55 90 -55 93 0 2 -6
10 -12 17 -7 8 -20 24 -28 36 -117 174 -372 451 -535 578 -5 4 -35 27 -65 50
-30 23 -60 46 -65 51 -68 54 -277 181 -400 243 -91 46 -256 117 -310 134 -5 2
-44 15 -85 29 -41 15 -82 28 -90 30 -8 2 -42 11 -75 20 -33 9 -69 18 -80 21
-11 2 -31 6 -45 9 -61 14 -190 36 -239 41 -30 3 -64 8 -75 11 -25 6 -503 13
-508 7z"/>
<path d="M4998 6875 c-1 -1 -25 -6 -53 -10 -64 -8 -179 -39 -230 -61 -22 -10
-42 -18 -45 -19 -11 -3 -105 -49 -110 -54 -7 -8 -42 -30 -60 -38 -44 -19 -196
-161 -262 -243 -74 -93 -174 -285 -192 -370 -3 -14 -10 -43 -16 -65 -19 -74
-24 -129 -23 -270 0 -184 30 -320 102 -465 32 -63 82 -152 91 -160 3 -3 18
-23 34 -45 81 -111 262 -258 396 -321 50 -24 151 -64 171 -68 8 -2 21 -6 29
-9 15 -6 46 -12 130 -25 61 -9 273 -8 335 2 63 9 178 40 230 61 64 26 150 69
153 78 2 4 8 7 14 7 21 0 145 96 218 170 74 73 170 197 170 218 0 6 4 12 8 14
7 2 53 90 57 108 1 3 9 23 19 45 48 111 70 239 70 405 0 182 -19 283 -80 430
-69 167 -211 353 -349 455 -27 21 -52 40 -55 44 -19 24 -255 134 -315 147 -11
2 -49 11 -85 20 -56 13 -341 29 -352 19z"/>
<path d="M4938 3994 c-2 -1 -39 -5 -83 -8 -85 -6 -144 -13 -185 -22 -14 -3
-36 -7 -50 -9 -21 -3 -70 -14 -130 -30 -8 -2 -15 -4 -15 -5 0 -1 -7 -3 -15 -5
-122 -26 -296 -122 -398 -219 -78 -75 -170 -225 -187 -305 -2 -9 -8 -38 -14
-64 -6 -27 -13 -84 -16 -127 -2 -43 -5 -82 -6 -86 -1 -5 -1 -11 0 -14 1 -3 3
-63 6 -135 2 -71 6 -148 9 -170 11 -97 19 -194 20 -242 1 -29 4 -53 9 -53 4 0
7 -12 6 -27 0 -16 2 -44 4 -63 3 -19 8 -60 12 -90 4 -30 8 -64 10 -75 1 -11 6
-42 10 -70 3 -27 8 -61 10 -75 2 -14 7 -47 11 -75 3 -27 7 -57 9 -65 8 -46 18
-108 21 -125 1 -11 3 -20 4 -20 1 0 3 -16 5 -35 2 -19 6 -48 9 -65 7 -36 27
-152 31 -180 2 -11 6 -33 9 -50 3 -16 10 -55 16 -85 6 -30 12 -65 14 -76 2
-12 7 -38 10 -59 4 -20 8 -40 10 -44 2 -3 7 -26 10 -51 3 -25 10 -60 15 -78 5
-18 10 -35 10 -37 0 -3 5 -29 10 -58 6 -28 13 -63 16 -77 11 -57 46 -217 54
-245 5 -16 14 -52 20 -80 7 -27 17 -66 22 -85 6 -19 11 -42 13 -50 1 -8 10
-32 19 -54 9 -21 17 -40 17 -43 0 -22 103 -151 152 -188 65 -51 211 -123 263
-129 11 -1 27 -5 35 -8 16 -7 66 -15 150 -26 30 -4 138 -7 240 -7 167 0 234 4
310 20 14 3 36 7 50 10 38 7 154 46 166 56 6 5 14 6 17 2 4 -3 7 -1 7 5 0 7 6
12 13 12 19 0 119 71 161 114 68 70 120 173 141 276 2 8 4 15 5 15 1 0 3 7 5
15 1 8 13 56 25 105 12 50 23 99 26 110 2 11 19 92 39 180 19 88 37 174 39
190 3 17 10 55 16 85 6 30 13 66 16 80 2 14 7 36 9 50 3 14 8 36 10 50 6 30
26 147 30 175 2 11 4 20 5 20 1 0 3 14 5 32 3 17 16 98 30 180 15 81 28 168
30 193 3 25 7 56 10 70 6 31 12 71 20 135 3 28 8 64 12 80 3 17 7 44 9 60 1
17 5 48 8 70 3 22 7 63 10 90 2 28 7 68 10 90 3 22 8 69 11 105 3 36 8 91 11
123 4 45 14 236 15 302 1 50 -15 200 -24 230 -3 11 -8 31 -11 45 -15 86 -103
238 -183 315 -65 63 -180 138 -272 176 -41 17 -80 32 -86 33 -5 2 -41 12 -80
23 -38 12 -86 24 -105 27 -19 3 -46 9 -60 12 -25 5 -43 8 -140 19 -52 6 -497
14 -502 9z"/>
</g>
</svg>
